<svg width="80" height="64" viewBox="0 0 80 64" fill="none" xmlns="http://www.w3.org/2000/svg">
<path d="M27.7525 7.58216C26.9492 6.75041 26.5046 5.63642 26.5147 4.48012C26.5247 3.32382 26.9885 2.21772 27.8062 1.40006C28.6239 0.582399 29.73 0.118597 30.8863 0.108549C32.0426 0.0985009 33.1566 0.543012 33.9883 1.34634L39.6905 7.04854L45.3927 1.34634C45.7995 0.925134 46.2861 0.589165 46.8242 0.358039C47.3622 0.126912 47.9409 0.00525491 48.5265 0.000166511C49.112 -0.00492188 49.6928 0.106659 50.2347 0.328401C50.7767 0.550142 51.2691 0.877602 51.6832 1.29167C52.0973 1.70575 52.4247 2.19814 52.6465 2.74012C52.8682 3.2821 52.9798 3.86281 52.9747 4.44838C52.9696 5.03394 52.8479 5.61263 52.6168 6.15067C52.3857 6.68872 52.0497 7.17534 51.6285 7.58216L42.8084 16.4023C41.9814 17.229 40.8599 17.6935 39.6905 17.6935C38.5211 17.6935 37.3996 17.229 36.5726 16.4023L27.7525 7.58216V7.58216ZM0 33.1296C0 31.96 0.464629 30.8383 1.29168 30.0112C2.11872 29.1842 3.24044 28.7196 4.41006 28.7196H74.9709C76.1406 28.7196 77.2623 29.1842 78.0893 30.0112C78.9164 30.8383 79.381 31.96 79.381 33.1296C79.381 34.2992 78.9164 35.4209 78.0893 36.248C77.2623 37.075 76.1406 37.5397 74.9709 37.5397H4.41006C3.24044 37.5397 2.11872 37.075 1.29168 36.248C0.464629 35.4209 0 34.2992 0 33.1296ZM0 59.5899C0 58.4203 0.464629 57.2986 1.29168 56.4716C2.11872 55.6445 3.24044 55.1799 4.41006 55.1799H74.9709C76.1406 55.1799 77.2623 55.6445 78.0893 56.4716C78.9164 57.2986 79.381 58.4203 79.381 59.5899C79.381 60.7596 78.9164 61.8813 78.0893 62.7083C77.2623 63.5354 76.1406 64 74.9709 64H4.41006C3.24044 64 2.11872 63.5354 1.29168 62.7083C0.464629 61.8813 0 60.7596 0 59.5899Z" fill="#DADCE1"/>
</svg>
