<svg width="63" height="64" viewBox="0 0 63 64" fill="none" xmlns="http://www.w3.org/2000/svg">
<path fill-rule="evenodd" clip-rule="evenodd" d="M25.2549 0.392597C26.6449 -0.0243855 28.1132 -0.110645 29.5424 0.140704C30.9717 0.392053 32.3225 0.974049 33.4868 1.84024C34.6512 2.70642 35.5969 3.83282 36.2486 5.1295C36.9002 6.42618 37.2397 7.85725 37.2399 9.30846V54.6915C37.2397 56.1428 36.9002 57.5738 36.2486 58.8705C35.5969 60.1672 34.6512 61.2936 33.4868 62.1598C32.3225 63.0259 30.9717 63.6079 29.5424 63.8593C28.1132 64.1106 26.6449 64.0244 25.2549 63.6074L6.63492 58.0214C4.71737 57.4462 3.03633 56.2682 1.84115 54.6621C0.64597 53.056 0.000328299 51.1075 0 49.1055V14.8945C0.000328299 12.8925 0.64597 10.944 1.84115 9.33789C3.03633 7.73184 4.71737 6.55382 6.63492 5.97859L25.2549 0.392597V0.392597ZM40.3433 7.17337C40.3433 6.35032 40.6702 5.56097 41.2522 4.97899C41.8342 4.397 42.6235 4.07004 43.4466 4.07004H52.7566C55.2257 4.07004 57.5938 5.05091 59.3397 6.79687C61.0857 8.54283 62.0666 10.9109 62.0666 13.38V16.4834C62.0666 17.3064 61.7396 18.0958 61.1576 18.6777C60.5756 19.2597 59.7863 19.5867 58.9632 19.5867C58.1402 19.5867 57.3508 19.2597 56.7689 18.6777C56.1869 18.0958 55.8599 17.3064 55.8599 16.4834V13.38C55.8599 12.557 55.533 11.7676 54.951 11.1856C54.369 10.6037 53.5796 10.2767 52.7566 10.2767H43.4466C42.6235 10.2767 41.8342 9.94974 41.2522 9.36775C40.6702 8.78577 40.3433 7.99642 40.3433 7.17337ZM58.9632 44.4133C59.7863 44.4133 60.5756 44.7403 61.1576 45.3223C61.7396 45.9042 62.0666 46.6936 62.0666 47.5166V50.62C62.0666 53.0891 61.0857 55.4572 59.3397 57.2031C57.5938 58.9491 55.2257 59.93 52.7566 59.93H43.4466C42.6235 59.93 41.8342 59.603 41.2522 59.021C40.6702 58.439 40.3433 57.6497 40.3433 56.8266C40.3433 56.0036 40.6702 55.2142 41.2522 54.6322C41.8342 54.0503 42.6235 53.7233 43.4466 53.7233H52.7566C53.5796 53.7233 54.369 53.3963 54.951 52.8144C55.533 52.2324 55.8599 51.443 55.8599 50.62V47.5166C55.8599 46.6936 56.1869 45.9042 56.7689 45.3223C57.3508 44.7403 58.1402 44.4133 58.9632 44.4133ZM21.7233 28.8967C20.9002 28.8967 20.1109 29.2236 19.5289 29.8056C18.9469 30.3876 18.62 31.1769 18.62 32C18.62 32.8231 18.9469 33.6124 19.5289 34.1944C20.1109 34.7764 20.9002 35.1033 21.7233 35.1033H21.7264C22.5495 35.1033 23.3388 34.7764 23.9208 34.1944C24.5028 33.6124 24.8297 32.8231 24.8297 32C24.8297 31.1769 24.5028 30.3876 23.9208 29.8056C23.3388 29.2236 22.5495 28.8967 21.7264 28.8967H21.7233Z" fill="#DADCE1"/>
<path d="M43.4465 32H58.9632H43.4465ZM58.9632 32L52.7565 25.7934L58.9632 32ZM58.9632 32L52.7565 38.2067Z" fill="#DADCE1"/>
<path d="M58.9632 32L52.7565 38.2067M43.4465 32H58.9632H43.4465ZM58.9632 32L52.7565 25.7934L58.9632 32Z" stroke="#DADCE1" stroke-width="4" stroke-linecap="round" stroke-linejoin="round"/>
</svg>
