<svg width="114" height="64" viewBox="0 0 114 64" fill="none" xmlns="http://www.w3.org/2000/svg">
<path d="M0 14.2222C0 10.4503 1.49841 6.83278 4.16559 4.16559C6.83278 1.49841 10.4503 0 14.2222 0H99.5556C103.328 0 106.945 1.49841 109.612 4.16559C112.279 6.83278 113.778 10.4503 113.778 14.2222V49.7778C113.778 53.5497 112.279 57.1672 109.612 59.8344C106.945 62.5016 103.328 64 99.5556 64H14.2222C10.4503 64 6.83278 62.5016 4.16559 59.8344C1.49841 57.1672 0 53.5497 0 49.7778V14.2222ZM92.4444 16V19.5556C92.4444 20.5369 93.2409 21.3333 94.2222 21.3333H97.7778C98.2493 21.3333 98.7015 21.146 99.0349 20.8126C99.3683 20.4792 99.5556 20.0271 99.5556 19.5556V16C99.5556 15.5285 99.3683 15.0763 99.0349 14.7429C98.7015 14.4095 98.2493 14.2222 97.7778 14.2222H94.2222C93.7507 14.2222 93.2985 14.4095 92.9651 14.7429C92.6317 15.0763 92.4444 15.5285 92.4444 16ZM16 28.4444C15.5285 28.4444 15.0763 28.6317 14.7429 28.9651C14.4095 29.2985 14.2222 29.7507 14.2222 30.2222V33.7778C14.2222 34.7591 15.0187 35.5556 16 35.5556H19.5556C20.0271 35.5556 20.4792 35.3683 20.8126 35.0349C21.146 34.7015 21.3333 34.2493 21.3333 33.7778V30.2222C21.3333 29.7507 21.146 29.2985 20.8126 28.9651C20.4792 28.6317 20.0271 28.4444 19.5556 28.4444H16ZM28.4444 30.2222V33.7778C28.4444 34.7591 29.2409 35.5556 30.2222 35.5556H33.7778C34.2493 35.5556 34.7015 35.3683 35.0349 35.0349C35.3683 34.7015 35.5556 34.2493 35.5556 33.7778V30.2222C35.5556 29.7507 35.3683 29.2985 35.0349 28.9651C34.7015 28.6317 34.2493 28.4444 33.7778 28.4444H30.2222C29.7507 28.4444 29.2985 28.6317 28.9651 28.9651C28.6317 29.2985 28.4444 29.7507 28.4444 30.2222ZM44.4444 28.4444C43.9729 28.4444 43.5208 28.6317 43.1874 28.9651C42.854 29.2985 42.6667 29.7507 42.6667 30.2222V33.7778C42.6667 34.7591 43.4631 35.5556 44.4444 35.5556H48C48.4715 35.5556 48.9237 35.3683 49.2571 35.0349C49.5905 34.7015 49.7778 34.2493 49.7778 33.7778V30.2222C49.7778 29.7507 49.5905 29.2985 49.2571 28.9651C48.9237 28.6317 48.4715 28.4444 48 28.4444H44.4444ZM56.8889 30.2222V33.7778C56.8889 34.7591 57.6853 35.5556 58.6667 35.5556H62.2222C62.6937 35.5556 63.1459 35.3683 63.4793 35.0349C63.8127 34.7015 64 34.2493 64 33.7778V30.2222C64 29.7507 63.8127 29.2985 63.4793 28.9651C63.1459 28.6317 62.6937 28.4444 62.2222 28.4444H58.6667C58.1952 28.4444 57.743 28.6317 57.4096 28.9651C57.0762 29.2985 56.8889 29.7507 56.8889 30.2222V30.2222ZM94.2222 28.4444C93.7507 28.4444 93.2985 28.6317 92.9651 28.9651C92.6317 29.2985 92.4444 29.7507 92.4444 30.2222V33.7778C92.4444 34.7591 93.2409 35.5556 94.2222 35.5556H97.7778C98.2493 35.5556 98.7015 35.3683 99.0349 35.0349C99.3683 34.7015 99.5556 34.2493 99.5556 33.7778V30.2222C99.5556 29.7507 99.3683 29.2985 99.0349 28.9651C98.7015 28.6317 98.2493 28.4444 97.7778 28.4444H94.2222ZM94.2222 42.6667C93.7507 42.6667 93.2985 42.854 92.9651 43.1874C92.6317 43.5208 92.4444 43.9729 92.4444 44.4444V48C92.4444 48.9813 93.2409 49.7778 94.2222 49.7778H97.7778C98.2493 49.7778 98.7015 49.5905 99.0349 49.2571C99.3683 48.9237 99.5556 48.4715 99.5556 48V44.4444C99.5556 43.9729 99.3683 43.5208 99.0349 43.1874C98.7015 42.854 98.2493 42.6667 97.7778 42.6667H94.2222ZM72.8889 28.4444C72.4174 28.4444 71.9652 28.6317 71.6318 28.9651C71.2984 29.2985 71.1111 29.7507 71.1111 30.2222V33.7778C71.1111 34.7591 71.9076 35.5556 72.8889 35.5556H83.5556C84.0271 35.5556 84.4792 35.3683 84.8126 35.0349C85.146 34.7015 85.3333 34.2493 85.3333 33.7778V30.2222C85.3333 29.7507 85.146 29.2985 84.8126 28.9651C84.4792 28.6317 84.0271 28.4444 83.5556 28.4444H72.8889ZM78.2222 44.4444V48C78.2222 48.9813 79.0187 49.7778 80 49.7778H83.5556C84.0271 49.7778 84.4792 49.5905 84.8126 49.2571C85.146 48.9237 85.3333 48.4715 85.3333 48V44.4444C85.3333 43.9729 85.146 43.5208 84.8126 43.1874C84.4792 42.854 84.0271 42.6667 83.5556 42.6667H80C79.5285 42.6667 79.0763 42.854 78.7429 43.1874C78.4095 43.5208 78.2222 43.9729 78.2222 44.4444ZM80 14.2222C79.5285 14.2222 79.0763 14.4095 78.7429 14.7429C78.4095 15.0763 78.2222 15.5285 78.2222 16V19.5556C78.2222 20.5369 79.0187 21.3333 80 21.3333H83.5556C84.0271 21.3333 84.4792 21.146 84.8126 20.8126C85.146 20.4792 85.3333 20.0271 85.3333 19.5556V16C85.3333 15.5285 85.146 15.0763 84.8126 14.7429C84.4792 14.4095 84.0271 14.2222 83.5556 14.2222H80ZM64 16V19.5556C64 20.5369 64.7964 21.3333 65.7778 21.3333H69.3333C69.8048 21.3333 70.257 21.146 70.5904 20.8126C70.9238 20.4792 71.1111 20.0271 71.1111 19.5556V16C71.1111 15.5285 70.9238 15.0763 70.5904 14.7429C70.257 14.4095 69.8048 14.2222 69.3333 14.2222H65.7778C65.3063 14.2222 64.8541 14.4095 64.5207 14.7429C64.1873 15.0763 64 15.5285 64 16ZM51.5556 14.2222C51.0841 14.2222 50.6319 14.4095 50.2985 14.7429C49.9651 15.0763 49.7778 15.5285 49.7778 16V19.5556C49.7778 20.5369 50.5742 21.3333 51.5556 21.3333H55.1111C55.5826 21.3333 56.0348 21.146 56.3682 20.8126C56.7016 20.4792 56.8889 20.0271 56.8889 19.5556V16C56.8889 15.5285 56.7016 15.0763 56.3682 14.7429C56.0348 14.4095 55.5826 14.2222 55.1111 14.2222H51.5556ZM35.5556 16V19.5556C35.5556 20.5369 36.352 21.3333 37.3333 21.3333H40.8889C41.3604 21.3333 41.8126 21.146 42.146 20.8126C42.4794 20.4792 42.6667 20.0271 42.6667 19.5556V16C42.6667 15.5285 42.4794 15.0763 42.146 14.7429C41.8126 14.4095 41.3604 14.2222 40.8889 14.2222H37.3333C36.8618 14.2222 36.4097 14.4095 36.0763 14.7429C35.7429 15.0763 35.5556 15.5285 35.5556 16ZM16 14.2222C15.5285 14.2222 15.0763 14.4095 14.7429 14.7429C14.4095 15.0763 14.2222 15.5285 14.2222 16V19.5556C14.2222 20.5369 15.0187 21.3333 16 21.3333H26.6667C27.1382 21.3333 27.5903 21.146 27.9237 20.8126C28.2571 20.4792 28.4444 20.0271 28.4444 19.5556V16C28.4444 15.5285 28.2571 15.0763 27.9237 14.7429C27.5903 14.4095 27.1382 14.2222 26.6667 14.2222H16ZM14.2222 44.4444V48C14.2222 48.9813 15.0187 49.7778 16 49.7778H19.5556C20.0271 49.7778 20.4792 49.5905 20.8126 49.2571C21.146 48.9237 21.3333 48.4715 21.3333 48V44.4444C21.3333 43.9729 21.146 43.5208 20.8126 43.1874C20.4792 42.854 20.0271 42.6667 19.5556 42.6667H16C15.5285 42.6667 15.0763 42.854 14.7429 43.1874C14.4095 43.5208 14.2222 43.9729 14.2222 44.4444ZM30.2222 42.6667C29.7507 42.6667 29.2985 42.854 28.9651 43.1874C28.6317 43.5208 28.4444 43.9729 28.4444 44.4444V48C28.4444 48.9813 29.2409 49.7778 30.2222 49.7778H69.3333C69.8048 49.7778 70.257 49.5905 70.5904 49.2571C70.9238 48.9237 71.1111 48.4715 71.1111 48V44.4444C71.1111 43.9729 70.9238 43.5208 70.5904 43.1874C70.257 42.854 69.8048 42.6667 69.3333 42.6667H30.2222Z" fill="#DADCE1"/>
</svg>
