<svg width="64" height="64" viewBox="0 0 64 64" fill="none" xmlns="http://www.w3.org/2000/svg">
<path d="M31.968 0C14.304 0 0 14.336 0 32C0 49.664 14.304 64 31.968 64C49.664 64 64 49.664 64 32C64 14.336 49.664 0 31.968 0ZM54.144 19.2H44.704C43.7025 15.2367 42.2194 11.4109 40.288 7.808C46.1252 9.81761 51.0437 13.8615 54.144 19.2ZM32 6.528C34.656 10.368 36.736 14.624 38.112 19.2H25.888C27.264 14.624 29.344 10.368 32 6.528ZM7.232 38.4C6.72 36.352 6.4 34.208 6.4 32C6.4 29.792 6.72 27.648 7.232 25.6H18.048C17.792 27.712 17.6 29.824 17.6 32C17.6 34.176 17.792 36.288 18.048 38.4H7.232ZM9.856 44.8H19.296C20.32 48.8 21.792 52.64 23.712 56.192C17.8687 54.1934 12.9467 50.1466 9.856 44.8V44.8ZM19.296 19.2H9.856C12.9467 13.8534 17.8687 9.80662 23.712 7.808C21.7806 11.4109 20.2975 15.2367 19.296 19.2V19.2ZM32 57.472C29.344 53.632 27.264 49.376 25.888 44.8H38.112C36.736 49.376 34.656 53.632 32 57.472ZM39.488 38.4H24.512C24.224 36.288 24 34.176 24 32C24 29.824 24.224 27.68 24.512 25.6H39.488C39.776 27.68 40 29.824 40 32C40 34.176 39.776 36.288 39.488 38.4ZM40.288 56.192C42.208 52.64 43.68 48.8 44.704 44.8H54.144C51.0437 50.1385 46.1252 54.1824 40.288 56.192V56.192ZM45.952 38.4C46.208 36.288 46.4 34.176 46.4 32C46.4 29.824 46.208 27.712 45.952 25.6H56.768C57.28 27.648 57.6 29.792 57.6 32C57.6 34.208 57.28 36.352 56.768 38.4H45.952Z" fill="#DADCE1"/>
</svg>
