<svg width="77" height="64" viewBox="0 0 77 64" fill="none" xmlns="http://www.w3.org/2000/svg">
<path d="M76.0471 1.88235H21.0824C20.6682 1.88235 20.3294 2.22118 20.3294 2.63529V7.90588C20.3294 8.32 20.6682 8.65882 21.0824 8.65882H76.0471C76.4612 8.65882 76.8 8.32 76.8 7.90588V2.63529C76.8 2.22118 76.4612 1.88235 76.0471 1.88235ZM76.0471 28.6118H21.0824C20.6682 28.6118 20.3294 28.9506 20.3294 29.3647V34.6353C20.3294 35.0494 20.6682 35.3882 21.0824 35.3882H76.0471C76.4612 35.3882 76.8 35.0494 76.8 34.6353V29.3647C76.8 28.9506 76.4612 28.6118 76.0471 28.6118ZM76.0471 55.3412H21.0824C20.6682 55.3412 20.3294 55.68 20.3294 56.0941V61.3647C20.3294 61.7788 20.6682 62.1176 21.0824 62.1176H76.0471C76.4612 62.1176 76.8 61.7788 76.8 61.3647V56.0941C76.8 55.68 76.4612 55.3412 76.0471 55.3412ZM0 5.27059C-1.03137e-08 5.96273 0.136328 6.6481 0.4012 7.28755C0.666072 7.92701 1.0543 8.50804 1.54372 8.99746C2.03314 9.48688 2.61416 9.8751 3.25362 10.14C3.89308 10.4048 4.57844 10.5412 5.27059 10.5412C5.96273 10.5412 6.6481 10.4048 7.28755 10.14C7.92701 9.8751 8.50804 9.48688 8.99746 8.99746C9.48688 8.50804 9.87511 7.92701 10.14 7.28755C10.4048 6.6481 10.5412 5.96273 10.5412 5.27059C10.5412 4.57844 10.4048 3.89308 10.14 3.25362C9.87511 2.61416 9.48688 2.03314 8.99746 1.54372C8.50804 1.0543 7.92701 0.666071 7.28755 0.401199C6.6481 0.136327 5.96273 0 5.27059 0C4.57844 0 3.89308 0.136327 3.25362 0.401199C2.61416 0.666071 2.03314 1.0543 1.54372 1.54372C1.0543 2.03314 0.666072 2.61416 0.4012 3.25362C0.136328 3.89308 -1.03137e-08 4.57844 0 5.27059V5.27059ZM0 32C-1.03137e-08 32.6921 0.136328 33.3775 0.4012 34.017C0.666072 34.6564 1.0543 35.2374 1.54372 35.7269C2.03314 36.2163 2.61416 36.6045 3.25362 36.8694C3.89308 37.1343 4.57844 37.2706 5.27059 37.2706C5.96273 37.2706 6.6481 37.1343 7.28755 36.8694C7.92701 36.6045 8.50804 36.2163 8.99746 35.7269C9.48688 35.2374 9.87511 34.6564 10.14 34.017C10.4048 33.3775 10.5412 32.6921 10.5412 32C10.5412 31.3079 10.4048 30.6225 10.14 29.983C9.87511 29.3436 9.48688 28.7626 8.99746 28.2731C8.50804 27.7837 7.92701 27.3955 7.28755 27.1306C6.6481 26.8657 5.96273 26.7294 5.27059 26.7294C4.57844 26.7294 3.89308 26.8657 3.25362 27.1306C2.61416 27.3955 2.03314 27.7837 1.54372 28.2731C1.0543 28.7626 0.666072 29.3436 0.4012 29.983C0.136328 30.6225 -1.03137e-08 31.3079 0 32V32ZM0 58.7294C-1.03137e-08 59.4216 0.136328 60.1069 0.4012 60.7464C0.666072 61.3858 1.0543 61.9669 1.54372 62.4563C2.03314 62.9457 2.61416 63.3339 3.25362 63.5988C3.89308 63.8637 4.57844 64 5.27059 64C5.96273 64 6.6481 63.8637 7.28755 63.5988C7.92701 63.3339 8.50804 62.9457 8.99746 62.4563C9.48688 61.9669 9.87511 61.3858 10.14 60.7464C10.4048 60.1069 10.5412 59.4216 10.5412 58.7294C10.5412 58.0373 10.4048 57.3519 10.14 56.7124C9.87511 56.073 9.48688 55.492 8.99746 55.0025C8.50804 54.5131 7.92701 54.1249 7.28755 53.86C6.6481 53.5952 5.96273 53.4588 5.27059 53.4588C4.57844 53.4588 3.89308 53.5952 3.25362 53.86C2.61416 54.1249 2.03314 54.5131 1.54372 55.0025C1.0543 55.492 0.666072 56.073 0.4012 56.7124C0.136328 57.3519 -1.03137e-08 58.0373 0 58.7294V58.7294Z" fill="#DADCE1"/>
</svg>
