<svg width="61" height="64" viewBox="0 0 61 64" fill="none" xmlns="http://www.w3.org/2000/svg">
<path d="M24.001 1.10933C24.3915 1.5838 24.6307 2.16447 24.6877 2.77629C24.7448 3.38812 24.617 4.003 24.321 4.54148C22.0084 8.78755 20.8006 13.547 20.8089 18.3821C20.8089 34.4667 33.9214 47.4913 50.0821 47.4913C52.1902 47.4913 54.2423 47.2713 56.2143 46.8512C56.8189 46.7203 57.4486 46.7704 58.0248 46.9952C58.6011 47.22 59.0983 47.6096 59.4545 48.1153C59.8305 48.6411 60.0221 49.2764 59.9997 49.9225C59.9773 50.5685 59.742 51.189 59.3305 51.6874C56.1931 55.5413 52.2352 58.6465 47.7453 60.7766C43.2555 62.9066 38.3469 64.0078 33.3774 64C14.9366 64 0 49.1433 0 30.8386C0 17.062 8.45635 5.24551 20.4969 0.237298C21.0966 -0.0161855 21.7625 -0.0682118 22.3943 0.0890341C23.0262 0.24628 23.59 0.604307 24.001 1.10933V1.10933Z" fill="#DADCE1"/>
</svg>
