<svg width="82" height="64" viewBox="0 0 82 64" fill="none" xmlns="http://www.w3.org/2000/svg">
<path d="M17.4545 40.7273V34.9091H23.2727V40.7273H17.4545ZM0 11.6364C0 8.55021 1.22597 5.59045 3.40821 3.40821C5.59045 1.22597 8.55021 0 11.6364 0H52.3636C55.4498 0 58.4095 1.22597 60.5918 3.40821C62.774 5.59045 64 8.55021 64 11.6364V49.4545C64 50.2261 64.3065 50.966 64.852 51.5116C65.3976 52.0571 66.1375 52.3636 66.9091 52.3636C67.6806 52.3636 68.4206 52.0571 68.9661 51.5116C69.5117 50.966 69.8182 50.2261 69.8182 49.4545V11.6364C72.9043 11.6364 75.8641 12.8623 78.0463 15.0446C80.2286 17.2268 81.4545 20.1866 81.4545 23.2727V49.4545C81.4545 53.3122 79.9221 57.0119 77.1943 59.7397C74.4665 62.4675 70.7668 64 66.9091 64H14.5455C10.6878 64 6.98807 62.4675 4.26026 59.7397C1.53246 57.0119 0 53.3122 0 49.4545V11.6364ZM14.5455 17.4545C13.7739 17.4545 13.034 17.761 12.4884 18.3066C11.9429 18.8522 11.6364 19.5921 11.6364 20.3636C11.6364 21.1352 11.9429 21.8751 12.4884 22.4207C13.034 22.9662 13.7739 23.2727 14.5455 23.2727H49.4545C50.2261 23.2727 50.966 22.9662 51.5116 22.4207C52.0571 21.8751 52.3636 21.1352 52.3636 20.3636C52.3636 19.5921 52.0571 18.8522 51.5116 18.3066C50.966 17.761 50.2261 17.4545 49.4545 17.4545H14.5455ZM14.5455 29.0909C13.7739 29.0909 13.034 29.3974 12.4884 29.943C11.9429 30.4885 11.6364 31.2285 11.6364 32V43.6364C11.6364 44.4079 11.9429 45.1478 12.4884 45.6934C13.034 46.239 13.7739 46.5455 14.5455 46.5455H26.1818C26.9534 46.5455 27.6933 46.239 28.2389 45.6934C28.7844 45.1478 29.0909 44.4079 29.0909 43.6364V32C29.0909 31.2285 28.7844 30.4885 28.2389 29.943C27.6933 29.3974 26.9534 29.0909 26.1818 29.0909H14.5455ZM37.8182 29.0909C37.0466 29.0909 36.3067 29.3974 35.7611 29.943C35.2156 30.4885 34.9091 31.2285 34.9091 32C34.9091 32.7715 35.2156 33.5115 35.7611 34.057C36.3067 34.6026 37.0466 34.9091 37.8182 34.9091H49.4545C50.2261 34.9091 50.966 34.6026 51.5116 34.057C52.0571 33.5115 52.3636 32.7715 52.3636 32C52.3636 31.2285 52.0571 30.4885 51.5116 29.943C50.966 29.3974 50.2261 29.0909 49.4545 29.0909H37.8182ZM37.8182 40.7273C37.0466 40.7273 36.3067 41.0338 35.7611 41.5793C35.2156 42.1249 34.9091 42.8648 34.9091 43.6364C34.9091 44.4079 35.2156 45.1478 35.7611 45.6934C36.3067 46.239 37.0466 46.5455 37.8182 46.5455H49.4545C50.2261 46.5455 50.966 46.239 51.5116 45.6934C52.0571 45.1478 52.3636 44.4079 52.3636 43.6364C52.3636 42.8648 52.0571 42.1249 51.5116 41.5793C50.966 41.0338 50.2261 40.7273 49.4545 40.7273H37.8182Z" fill="#DADCE1"/>
</svg>
