<svg width="73" height="64" viewBox="0 0 73 64" fill="none" xmlns="http://www.w3.org/2000/svg">
<path d="M72 0H0.727273C0.327273 0 0 0.327273 0 0.727273V6.54545C0 6.94545 0.327273 7.27273 0.727273 7.27273H72C72.4 7.27273 72.7273 6.94545 72.7273 6.54545V0.727273C72.7273 0.327273 72.4 0 72 0ZM72 56.7273H0.727273C0.327273 56.7273 0 57.0545 0 57.4545V63.2727C0 63.6727 0.327273 64 0.727273 64H72C72.4 64 72.7273 63.6727 72.7273 63.2727V57.4545C72.7273 57.0545 72.4 56.7273 72 56.7273ZM72 28.3636H0.727273C0.327273 28.3636 0 28.6909 0 29.0909V34.9091C0 35.3091 0.327273 35.6364 0.727273 35.6364H72C72.4 35.6364 72.7273 35.3091 72.7273 34.9091V29.0909C72.7273 28.6909 72.4 28.3636 72 28.3636Z" fill="#DADCE1"/>
</svg>
