<svg width="90" height="64" viewBox="0 0 90 64" fill="none" xmlns="http://www.w3.org/2000/svg">
<path d="M89.6 4.8V59.2C89.6 60.6 88.95 61.5833 87.65 62.15C87.2167 62.3167 86.8 62.4 86.4 62.4C85.5 62.4 84.75 62.0833 84.15 61.45L64 41.3V49.6C64 53.5667 62.5917 56.9583 59.775 59.775C56.9583 62.5917 53.5667 64 49.6 64H14.4C10.4333 64 7.04167 62.5917 4.225 59.775C1.40833 56.9583 0 53.5667 0 49.6V14.4C0 10.4333 1.40833 7.04167 4.225 4.225C7.04167 1.40833 10.4333 0 14.4 0H49.6C53.5667 0 56.9583 1.40833 59.775 4.225C62.5917 7.04167 64 10.4333 64 14.4V22.65L84.15 2.55C84.75 1.91667 85.5 1.6 86.4 1.6C86.8 1.6 87.2167 1.68333 87.65 1.85C88.95 2.41667 89.6 3.4 89.6 4.8Z" fill="#F3425F"/>
</svg>
