<svg width="80" height="64" viewBox="0 0 80 64" fill="none" xmlns="http://www.w3.org/2000/svg">
<path d="M76 0H20C18.9391 0 17.9217 0.421427 17.1716 1.17157C16.4214 1.92172 16 2.93913 16 4V16H36V8H60V48H76C77.0609 48 78.0783 47.5786 78.8284 46.8284C79.5786 46.0783 80 45.0609 80 44V4C80 2.93913 79.5786 1.92172 78.8284 1.17157C78.0783 0.421427 77.0609 0 76 0V0ZM29 12.875C29 13.1734 28.8815 13.4595 28.6705 13.6705C28.4595 13.8815 28.1734 14 27.875 14H24.125C23.8266 14 23.5405 13.8815 23.3295 13.6705C23.1185 13.4595 23 13.1734 23 12.875V9.125C23 8.82663 23.1185 8.54048 23.3295 8.3295C23.5405 8.11853 23.8266 8 24.125 8H27.875C28.1734 8 28.4595 8.11853 28.6705 8.3295C28.8815 8.54048 29 8.82663 29 9.125V12.875ZM73 38.875C73 39.1734 72.8815 39.4595 72.6705 39.6705C72.4595 39.8815 72.1734 40 71.875 40H68.125C67.8266 40 67.5405 39.8815 67.3295 39.6705C67.1185 39.4595 67 39.1734 67 38.875V35.125C67 34.8266 67.1185 34.5405 67.3295 34.3295C67.5405 34.1185 67.8266 34 68.125 34H71.875C72.1734 34 72.4595 34.1185 72.6705 34.3295C72.8815 34.5405 73 34.8266 73 35.125V38.875ZM73 25.875C73 26.1734 72.8815 26.4595 72.6705 26.6705C72.4595 26.8815 72.1734 27 71.875 27H68.125C67.8266 27 67.5405 26.8815 67.3295 26.6705C67.1185 26.4595 67 26.1734 67 25.875V22.125C67 21.8266 67.1185 21.5405 67.3295 21.3295C67.5405 21.1185 67.8266 21 68.125 21H71.875C72.1734 21 72.4595 21.1185 72.6705 21.3295C72.8815 21.5405 73 21.8266 73 22.125V25.875ZM73 12.875C73 13.1734 72.8815 13.4595 72.6705 13.6705C72.4595 13.8815 72.1734 14 71.875 14H68.125C67.8266 14 67.5405 13.8815 67.3295 13.6705C67.1185 13.4595 67 13.1734 67 12.875V9.125C67 8.82663 67.1185 8.54048 67.3295 8.3295C67.5405 8.11853 67.8266 8 68.125 8H71.875C72.1734 8 72.4595 8.11853 72.6705 8.3295C72.8815 8.54048 73 8.82663 73 9.125V12.875ZM52 20H4C2.93913 20 1.92172 20.4214 1.17157 21.1716C0.421427 21.9217 0 22.9391 0 24L0 60C0 61.0609 0.421427 62.0783 1.17157 62.8284C1.92172 63.5786 2.93913 64 4 64H52C53.0609 64 54.0783 63.5786 54.8284 62.8284C55.5786 62.0783 56 61.0609 56 60V24C56 22.9391 55.5786 21.9217 54.8284 21.1716C54.0783 20.4214 53.0609 20 52 20ZM12 28C12.7911 28 13.5645 28.2346 14.2223 28.6741C14.8801 29.1136 15.3928 29.7384 15.6955 30.4693C15.9983 31.2002 16.0775 32.0044 15.9231 32.7804C15.7688 33.5563 15.3878 34.269 14.8284 34.8284C14.269 35.3878 13.5563 35.7688 12.7804 35.9231C12.0044 36.0775 11.2002 35.9983 10.4693 35.6955C9.73836 35.3928 9.11365 34.8801 8.67412 34.2223C8.2346 33.5645 8 32.7911 8 32C8 30.9391 8.42143 29.9217 9.17157 29.1716C9.92172 28.4214 10.9391 28 12 28V28ZM48 56H8V52L16 44L20 48L36 32L48 44V56Z" fill="#DADCE1"/>
</svg>
