<svg width="69" height="64" viewBox="0 0 69 64" fill="none" xmlns="http://www.w3.org/2000/svg">
<path d="M12.672 1.49333C13.0726 1.025 13.5699 0.649006 14.1296 0.391216C14.6894 0.133425 15.2984 -4.05361e-05 15.9147 9.23513e-09H52.352C52.9683 -4.05361e-05 53.5773 0.133425 54.137 0.391216C54.6968 0.649006 55.1941 1.025 55.5947 1.49333L66.7264 14.4811C67.7203 15.6409 68.2666 17.1179 68.2667 18.6453V19.7333C68.2669 21.8452 67.6073 23.9044 66.38 25.6231C65.1528 27.3418 63.4192 28.6341 61.4216 29.3194C59.4239 30.0047 57.2621 30.0488 55.2382 29.4454C53.2144 28.8421 51.4296 27.6214 50.1333 25.9541C49.1867 27.1734 47.9737 28.1599 46.587 28.8381C45.2004 29.5162 43.6769 29.8681 42.1333 29.8667C40.5897 29.8684 39.0661 29.5167 37.6794 28.8385C36.2927 28.1603 35.0797 27.1737 34.1333 25.9541C33.187 27.1737 31.9739 28.1603 30.5872 28.8385C29.2005 29.5167 27.677 29.8684 26.1333 29.8667C24.5897 29.8684 23.0661 29.5167 21.6794 28.8385C20.2927 28.1603 19.0797 27.1737 18.1333 25.9541C16.8371 27.6214 15.0523 28.8421 13.0284 29.4454C11.0046 30.0488 8.84274 30.0047 6.84512 29.3194C4.8475 28.6341 3.11391 27.3418 1.88664 25.6231C0.659378 23.9044 -0.000232954 21.8452 6.17154e-08 19.7333V18.6453C5.37922e-05 17.1179 0.546375 15.6409 1.54027 14.4811L12.6763 1.48907L12.672 1.49333ZM20.2667 19.7333C20.2667 21.2893 20.8848 22.7815 21.985 23.8817C23.0852 24.9819 24.5774 25.6 26.1333 25.6C27.6893 25.6 29.1815 24.9819 30.2817 23.8817C31.3819 22.7815 32 21.2893 32 19.7333C32 19.1675 32.2248 18.6249 32.6248 18.2248C33.0249 17.8248 33.5675 17.6 34.1333 17.6C34.6991 17.6 35.2418 17.8248 35.6418 18.2248C36.0419 18.6249 36.2667 19.1675 36.2667 19.7333C36.2667 21.2893 36.8848 22.7815 37.985 23.8817C39.0852 24.9819 40.5774 25.6 42.1333 25.6C43.6893 25.6 45.1815 24.9819 46.2817 23.8817C47.3819 22.7815 48 21.2893 48 19.7333C48 19.1675 48.2248 18.6249 48.6248 18.2248C49.0249 17.8248 49.5675 17.6 50.1333 17.6C50.6991 17.6 51.2418 17.8248 51.6418 18.2248C52.0419 18.6249 52.2667 19.1675 52.2667 19.7333C52.2667 21.2893 52.8848 22.7815 53.985 23.8817C55.0852 24.9819 56.5774 25.6 58.1333 25.6C59.6893 25.6 61.1815 24.9819 62.2817 23.8817C63.3819 22.7815 64 21.2893 64 19.7333V18.6453C64 18.1369 63.8185 17.6451 63.488 17.2587L52.352 4.26667H15.9147L4.77867 17.2587C4.4482 17.6451 4.26663 18.1369 4.26667 18.6453V19.7333C4.26667 21.2893 4.88476 22.7815 5.98497 23.8817C7.08519 24.9819 8.5774 25.6 10.1333 25.6C11.6893 25.6 13.1815 24.9819 14.2817 23.8817C15.3819 22.7815 16 21.2893 16 19.7333C16 19.1675 16.2248 18.6249 16.6248 18.2248C17.0249 17.8248 17.5675 17.6 18.1333 17.6C18.6991 17.6 19.2418 17.8248 19.6418 18.2248C20.0419 18.6249 20.2667 19.1675 20.2667 19.7333V19.7333ZM6.4 32C6.9658 32 7.50842 32.2248 7.90849 32.6248C8.30857 33.0249 8.53333 33.5675 8.53333 34.1333V59.7333H59.7333V34.1333C59.7333 33.5675 59.9581 33.0249 60.3582 32.6248C60.7583 32.2248 61.3009 32 61.8667 32C62.4325 32 62.9751 32.2248 63.3752 32.6248C63.7752 33.0249 64 33.5675 64 34.1333V59.7333H66.1333C66.6991 59.7333 67.2418 59.9581 67.6418 60.3582C68.0419 60.7583 68.2667 61.3009 68.2667 61.8667C68.2667 62.4325 68.0419 62.9751 67.6418 63.3752C67.2418 63.7752 66.6991 64 66.1333 64H2.13333C1.56754 64 1.02492 63.7752 0.624839 63.3752C0.224761 62.9751 6.17154e-08 62.4325 6.17154e-08 61.8667C6.17154e-08 61.3009 0.224761 60.7583 0.624839 60.3582C1.02492 59.9581 1.56754 59.7333 2.13333 59.7333H4.26667V34.1333C4.26667 33.5675 4.49143 33.0249 4.89151 32.6248C5.29158 32.2248 5.83421 32 6.4 32V32ZM14.9333 34.1333C15.4991 34.1333 16.0418 34.3581 16.4418 34.7582C16.8419 35.1583 17.0667 35.7009 17.0667 36.2667V51.2H51.2V36.2667C51.2 35.7009 51.4248 35.1583 51.8248 34.7582C52.2249 34.3581 52.7675 34.1333 53.3333 34.1333C53.8991 34.1333 54.4418 34.3581 54.8418 34.7582C55.2419 35.1583 55.4667 35.7009 55.4667 36.2667V51.2C55.4667 52.3316 55.0171 53.4168 54.217 54.217C53.4168 55.0171 52.3316 55.4667 51.2 55.4667H17.0667C15.9351 55.4667 14.8498 55.0171 14.0497 54.217C13.2495 53.4168 12.8 52.3316 12.8 51.2V36.2667C12.8 35.7009 13.0248 35.1583 13.4248 34.7582C13.8249 34.3581 14.3675 34.1333 14.9333 34.1333Z" fill="#DADCE1"/>
</svg>
