<svg width="72" height="64" viewBox="0 0 72 64" fill="none" xmlns="http://www.w3.org/2000/svg">
<path d="M24.8889 0C20.1739 0 15.6521 1.87301 12.3181 5.20699C8.98412 8.54097 7.11111 13.0628 7.11111 17.7778C7.11111 22.4927 8.98412 27.0146 12.3181 30.3486C15.6521 33.6825 20.1739 35.5556 24.8889 35.5556C29.6039 35.5556 34.1257 33.6825 37.4597 30.3486C40.7937 27.0146 42.6667 22.4927 42.6667 17.7778C42.6667 13.0628 40.7937 8.54097 37.4597 5.20699C34.1257 1.87301 29.6039 0 24.8889 0V0ZM14.2222 17.7778C14.2222 14.9488 15.346 12.2357 17.3464 10.2353C19.3468 8.23492 22.0599 7.11111 24.8889 7.11111C27.7179 7.11111 30.431 8.23492 32.4314 10.2353C34.4318 12.2357 35.5556 14.9488 35.5556 17.7778C35.5556 20.6068 34.4318 23.3199 32.4314 25.3203C30.431 27.3206 27.7179 28.4444 24.8889 28.4444C22.0599 28.4444 19.3468 27.3206 17.3464 25.3203C15.346 23.3199 14.2222 20.6068 14.2222 17.7778ZM53.0062 18.5529C52.0063 18.0434 50.9 17.7778 49.7778 17.7778V10.6667C52.0232 10.6668 54.2367 11.1986 56.2371 12.2186C58.2375 13.2385 59.9679 14.7176 61.2869 16.5348C62.6058 18.352 63.4757 20.4557 63.8255 22.6737C64.1752 24.8917 63.9948 27.161 63.299 29.2959C62.6032 31.4308 61.4118 33.3706 59.8223 34.9566C58.2328 36.5426 56.2904 37.7297 54.154 38.4208C52.0175 39.1118 49.7479 39.2872 47.5306 38.9326C45.3134 38.578 43.2116 37.7034 41.3973 36.3804L45.5858 30.6347C46.3788 31.2118 47.2825 31.6186 48.2403 31.8297C49.1981 32.0407 50.1892 32.0513 51.1512 31.8608C52.1133 31.6704 53.0256 31.283 53.8307 30.7229C54.6359 30.1629 55.3165 29.4424 55.8298 28.6067C56.3431 27.771 56.6779 26.8382 56.8133 25.8668C56.9487 24.8954 56.8817 23.9066 56.6165 22.9624C56.3514 22.0181 55.8937 21.139 55.2724 20.3801C54.6511 19.6213 53.8796 18.9992 53.0062 18.5529ZM63.9929 64C63.9919 60.2302 62.494 56.6151 59.8283 53.9494C57.1627 51.2838 53.5476 49.7858 49.7778 49.7849V42.6667C55.4354 42.6676 60.8611 44.9155 64.8617 48.9161C68.8623 52.9167 71.1102 58.3423 71.1111 64H63.9929ZM49.7778 64H42.6667C42.6667 59.285 40.7937 54.7632 37.4597 51.4292C34.1257 48.0952 29.6039 46.2222 24.8889 46.2222C20.1739 46.2222 15.6521 48.0952 12.3181 51.4292C8.98412 54.7632 7.11111 59.285 7.11111 64H0C0 57.3991 2.62221 51.0685 7.28979 46.4009C11.9574 41.7333 18.2879 39.1111 24.8889 39.1111C31.4898 39.1111 37.8204 41.7333 42.488 46.4009C47.1556 51.0685 49.7778 57.3991 49.7778 64V64Z" fill="#DADCE1"/>
</svg>
