<svg width="64" height="64" viewBox="0 0 64 64" fill="none" xmlns="http://www.w3.org/2000/svg">
<path d="M46.4087 4.76781C44.8114 4.01809 43.3012 3.31231 41.9265 2.62249C38.4036 0.857526 35.2091 0 32.1643 0C26.0318 0 21.7881 3.53792 19.1267 6.19934L6.22089 19.1191C-0.685239 26.0323 -1.78834 33.0702 2.64797 41.9429C3.33585 43.3205 4.04363 44.8339 4.79235 46.4372C8.82941 55.0714 13.0022 64 19.8325 64C20.0242 64 20.2138 63.994 20.4075 63.979C27.4564 63.427 29.4559 54.3526 31.2209 46.3473C31.5014 45.0795 31.7669 43.8635 32.0395 42.7735C32.5137 40.8887 33.4471 39.7177 36.0046 37.1541L36.356 36.8007L36.5727 36.5841L37.1417 36.0171C39.7053 33.4535 40.8763 32.5211 42.763 32.0449C43.8431 31.7735 45.0561 31.5058 46.3209 31.2283C54.3212 29.4624 63.3916 27.4618 63.9406 20.4019C64.4946 13.2372 55.3014 8.93165 46.4087 4.76781V4.76781ZM59.8387 20.0405C59.4504 25.0179 48.3077 26.4872 41.6761 28.1503C38.7431 28.891 36.9582 30.4434 34.2648 33.1377C34.0771 33.3253 33.8885 33.513 33.6978 33.7036C33.5091 33.8924 33.3214 34.084 33.1327 34.2708C30.4393 36.9671 28.89 38.751 28.1523 41.688C26.4881 48.3256 25.0207 59.4805 20.0493 59.8718C19.9596 59.8783 19.8696 59.8813 19.7796 59.8808C14.5047 59.8808 10.0663 47.8864 6.15014 40.0608C2.17297 32.1055 3.87698 26.9444 8.98027 21.8362C9.95959 20.8549 11.1774 19.637 12.6699 18.1436C14.1942 16.6173 16.0071 14.8024 18.1554 12.6531C19.6468 11.1596 20.8637 9.94372 21.844 8.96041C25.0136 5.78786 28.2041 3.92906 32.0715 3.92906C34.4304 3.92906 37.0399 4.61887 40.0497 6.12828C48.0021 10.1155 60.258 14.6436 59.8387 20.0405V20.0405ZM29.9103 21.9709H33.9034V17.9778H29.9103V21.9709ZM29.9103 15.9812H33.9034V11.9881H29.9103V15.9812ZM35.9 15.9812H39.8931V11.9881H35.9V15.9812ZM35.9 21.9709H39.8931V17.9778H35.9V21.9709ZM20.6203 33.9604L22.1387 32.442C22.8874 31.6933 22.8874 30.4784 22.1387 29.7307C21.39 28.9819 20.1771 28.9819 19.4284 29.7307L17.909 31.25L16.3896 29.7307C15.6409 28.9819 14.428 28.9819 13.6793 29.7307C12.9305 30.4794 12.9305 31.6933 13.6793 32.442L15.1986 33.9614L13.6793 35.4807C12.9305 36.2285 12.9305 37.4423 13.6793 38.191C14.428 38.9398 15.6419 38.9398 16.3896 38.191L17.909 36.6727L19.4723 38.236C20.221 38.9847 21.4339 38.9847 22.1826 38.236C22.9314 37.4873 22.9314 36.2724 22.1826 35.5237L20.6203 33.9604Z" fill="#DADCE1"/>
</svg>
