<svg width="68" height="64" viewBox="0 0 68 64" fill="none" xmlns="http://www.w3.org/2000/svg">
<path d="M66.3796 31.4757L35.5824 0.700895C35.3606 0.478713 35.0972 0.302443 34.8073 0.182174C34.5173 0.0619059 34.2065 0 33.8926 0C33.5787 0 33.2679 0.0619059 32.9779 0.182174C32.688 0.302443 32.4246 0.478713 32.2028 0.700895L1.40565 31.4757C0.508426 32.3729 0 33.5916 0 34.8627C0 37.502 2.14586 39.6479 4.78519 39.6479H8.03015V61.6074C8.03015 62.9308 9.09934 64 10.4227 64H29.1074V47.2518H37.4815V64H57.3625C58.6859 64 59.7551 62.9308 59.7551 61.6074V39.6479H63C64.2711 39.6479 65.4898 39.1469 66.387 38.2422C68.2488 36.373 68.2488 33.3449 66.3796 31.4757V31.4757Z" fill="#0080FF"/>
</svg>
