<svg width="68" height="64" viewBox="0 0 68 64" fill="none" xmlns="http://www.w3.org/2000/svg">
<path d="M60.6316 20.2105H41.728L45.5107 8.86905C46.1912 6.82105 45.8476 4.55074 44.5844 2.79916C43.3213 1.04758 41.2733 0 39.1141 0H33.6842C32.6838 0 31.7373 0.444631 31.0939 1.21263L15.2623 20.2105H6.73684C3.02147 20.2105 0 23.232 0 26.9474V57.2632C0 60.9785 3.02147 64 6.73684 64H51.5604C52.931 63.9955 54.2679 63.575 55.3944 62.7944C56.5209 62.0137 57.384 60.9095 57.8695 59.6278L67.1562 34.8665C67.2972 34.4883 67.3691 34.0878 67.3684 33.6842V26.9474C67.3684 23.232 64.347 20.2105 60.6316 20.2105ZM6.73684 26.9474H13.4737V57.2632H6.73684V26.9474ZM60.6316 33.0745L51.5604 57.2632H20.2105V24.7983L35.2606 6.73684H39.1208L33.8594 22.5112C33.6886 23.0175 33.6409 23.5572 33.7204 24.0856C33.7999 24.6141 34.0042 25.1159 34.3163 25.5496C34.6285 25.9833 35.0396 26.3363 35.5154 26.5794C35.9913 26.8225 36.5183 26.9486 37.0526 26.9474H60.6316V33.0745Z" fill="#DADCE1"/>
</svg>
